<?xml version="1.0" standalone="no"?>
<!DOCTYPE svg PUBLIC "-//W3C//DTD SVG 20010904//EN"
 "http://www.w3.org/TR/2001/REC-SVG-20010904/DTD/svg10.dtd">
<svg version="1.0" xmlns="http://www.w3.org/2000/svg"
 width="256.000000pt" height="256.000000pt" viewBox="0 0 256.000000 256.000000"
 preserveAspectRatio="xMidYMid meet">

<g transform="translate(0.000000,256.000000) scale(0.100000,-0.100000)"
fill="#2ebbbb" stroke="none">
<path d="M422 2540 c-105 -28 -167 -64 -252 -150 -87 -86 -122 -147 -150 -256
-25 -98 -25 -180 0 -278 33 -129 58 -164 269 -378 l195 -198 -195 -197 c-128
-131 -204 -216 -222 -250 -36 -68 -67 -191 -67 -268 0 -77 31 -200 67 -268 41
-78 165 -197 243 -235 178 -87 399 -77 556 27 38 25 336 317 830 812 586 589
777 786 797 826 36 69 67 192 67 268 0 77 -31 200 -67 268 -35 67 -163 195
-230 230 -68 36 -191 67 -268 67 -77 0 -200 -31 -268 -67 -34 -18 -119 -94
-249 -222 l-198 -195 -197 195 c-215 211 -250 236 -379 269 -96 25 -187 25
-282 0z m286 -172 c69 -26 117 -66 302 -252 l155 -156 -283 -283 -282 -282
-185 186 c-200 201 -225 238 -243 354 -47 301 248 539 536 433z m1411 6 c228
-73 337 -330 235 -554 -22 -48 -127 -157 -792 -822 -836 -836 -804 -808 -938
-826 -132 -17 -248 21 -340 112 -120 121 -151 296 -79 453 23 51 114 146 793
825 688 688 773 770 826 794 93 42 199 49 295 18z"/>
<path d="M1905 2256 c-53 -23 -74 -96 -45 -151 18 -34 74 -58 115 -51 96 18
116 159 30 201 -40 18 -60 18 -100 1z"/>
<path d="M1695 2048 c-56 -31 -72 -105 -35 -159 53 -73 173 -46 194 43 8 35
-14 90 -45 112 -27 18 -84 21 -114 4z"/>
<path d="M2091 2034 c-76 -64 -30 -187 69 -187 86 0 137 89 93 163 -32 56
-111 67 -162 24z"/>
<path d="M1401 1889 c-34 -13 -50 -39 -51 -79 0 -31 17 -51 213 -247 196 -196
216 -213 247 -213 19 0 43 6 52 14 25 19 39 62 29 89 -13 30 -421 434 -446
440 -11 3 -31 1 -44 -4z"/>
<path d="M1924 1849 c-122 -33 -93 -209 34 -209 32 0 47 7 71 31 79 78 3 206
-105 178z"/>
<path d="M698 1196 c-25 -19 -39 -62 -29 -88 11 -28 419 -433 444 -441 22 -8
66 9 83 31 8 9 14 33 14 52 0 32 -16 51 -213 247 -196 195 -216 213 -248 213
-19 0 -42 -6 -51 -14z"/>
<path d="M555 908 c-36 -19 -55 -52 -55 -94 0 -51 27 -88 75 -104 76 -25 156
54 134 132 -17 64 -97 98 -154 66z"/>
<path d="M786 709 c-65 -18 -98 -82 -72 -143 19 -45 52 -66 102 -66 34 0 49 6
73 31 77 77 2 207 -103 178z"/>
<path d="M334 692 c-55 -44 -59 -109 -10 -158 27 -27 42 -34 74 -34 102 0 146
119 71 189 -29 27 -104 29 -135 3z"/>
<path d="M564 500 c-36 -14 -64 -59 -64 -102 0 -52 51 -108 99 -108 118 0 160
155 56 205 -36 17 -59 18 -91 5z"/>
<path d="M2091 1199 c-34 -13 -50 -38 -51 -77 0 -29 17 -50 146 -183 157 -161
185 -205 202 -314 20 -125 -21 -249 -112 -341 -91 -91 -209 -130 -337 -112
-111 15 -156 43 -318 203 -133 129 -152 145 -182 145 -19 0 -42 -6 -51 -14
-25 -19 -39 -62 -29 -89 5 -12 78 -90 162 -172 124 -122 167 -157 221 -183
227 -110 473 -69 648 107 87 88 122 148 150 257 34 132 20 262 -41 391 -27 57
-58 94 -188 225 -86 86 -165 159 -176 161 -11 3 -31 1 -44 -4z"/>
</g>
</svg>
