<?xml version="1.0" standalone="no"?>
<!DOCTYPE svg PUBLIC "-//W3C//DTD SVG 20010904//EN"
 "http://www.w3.org/TR/2001/REC-SVG-20010904/DTD/svg10.dtd">
<svg version="1.0" xmlns="http://www.w3.org/2000/svg"
 width="256.000000pt" height="256.000000pt" viewBox="0 0 256.000000 256.000000"
 preserveAspectRatio="xMidYMid meet">

<g transform="translate(0.000000,256.000000) scale(0.100000,-0.100000)"
fill="#2ebbbb" stroke="none">
<path d="M880 2533 c-31 -17 -65 -45 -83 -71 -27 -37 -32 -54 -35 -115 -4 -92
22 -148 90 -192 l47 -30 0 -264 1 -264 -307 -516 c-169 -284 -318 -543 -331
-575 -79 -193 32 -423 234 -486 64 -19 91 -20 784 -20 693 0 720 1 784 20 202
63 313 292 234 486 -13 32 -163 292 -332 578 l-309 518 1 261 c1 160 5 263 11
265 34 11 92 67 111 107 18 37 21 59 18 115 -5 87 -40 141 -118 183 l-52 27
-348 0 -348 0 -52 -27z m733 -134 c29 -16 37 -28 37 -64 0 -73 -12 -75 -370
-75 -358 0 -370 2 -370 75 0 72 10 74 368 75 217 0 320 -4 335 -11z m-113
-364 l0 -75 -41 0 c-68 0 -99 -24 -99 -75 0 -51 31 -75 99 -75 l41 0 0 -75 0
-75 -41 0 c-68 0 -99 -24 -99 -75 0 -55 31 -75 118 -75 l60 0 158 -267 c88
-147 160 -272 162 -279 4 -17 -100 -54 -172 -61 -106 -10 -250 42 -361 131
-134 106 -272 159 -442 169 l-42 2 107 180 107 180 3 272 3 273 220 0 219 0 0
-75z m-495 -1000 c67 -18 170 -71 230 -119 127 -102 291 -167 423 -166 59 1
150 21 222 49 30 11 58 21 61 21 8 0 181 -291 211 -353 49 -99 8 -227 -91
-285 l-46 -27 -735 0 -735 0 -46 27 c-94 55 -138 179 -97 274 7 17 83 149 168
292 l155 262 45 14 c93 30 150 33 235 11z"/>
<path d="M788 736 c-39 -30 -40 -92 0 -122 43 -33 112 4 112 61 0 57 -69 94
-112 61z"/>
<path d="M1688 586 c-39 -30 -40 -92 0 -122 43 -33 112 4 112 61 0 57 -69 94
-112 61z"/>
<path d="M1238 436 c-39 -30 -40 -92 0 -122 43 -33 112 4 112 61 0 57 -69 94
-112 61z"/>
</g>
</svg>
